# xmcd CD database file
#
# Track frame offsets:
#	150
#	15035
#	32332
#	52307
#	77835
#	97880
#	117067
#	134385
#	150457
#	178252
#	205810
#	217730
#	236720
#	258370
#	271557
#
# Disc length: 3986 seconds
#
# Revision: 3
# Processed by: cddbd v1.4PL0 Copyright (c) Steve Scherf et al.
# Submitted via: CDex 1.50beta9
#
DISCID=b60f900f
DTITLE=Reed, Lou - Perfect Night Live In London
DYEAR=1998
DGENRE=Rock
TTITLE0=I'll Be Your Mirror
TTITLE1=Perfect Day
TTITLE2=The Kids
TTITLE3=Vicious
TTITLE4=Busload Of Faith
TTITLE5=Kicks
TTITLE6=Talking Book
TTITLE7=Into The Divine
TTITLE8=Coney Island Baby
TTITLE9=New Sensations
TTITLE10=Why Do You Talk
TTITLE11=Riptide
TTITLE12=Original Wrapper
TTITLE13=Sex With Your Parents
TTITLE14=Dirty Blvd.
EXTD=YEAR: 1998
EXTT0=
EXTT1=
EXTT2=
EXTT3=
EXTT4=
EXTT5=
EXTT6=
EXTT7=
EXTT8=
EXTT9=
EXTT10=
EXTT11=
EXTT12=
EXTT13=
EXTT14=
PLAYORDER=
